<svg xmlns="http://www.w3.org/2000/svg" width="66" height="66" viewBox="0 0 66 66">
  <circle id="Ellipse_1" data-name="Ellipse 1" cx="33" cy="33" r="33" fill="#77787c"/>
  <path id="Path_857" data-name="Path 857" d="M784.575,84.8h22.533c0,1.4.052,2.775-.017,4.137-.034.758-.659.931-1.335.931h-6.413c-.486,0-1.005.034-.988.672.034.621.555.621,1.04.621h6.326a2.435,2.435,0,0,0,2.722-2.724c.017-4.826,0-9.653,0-14.479V71.182h2.219a1.73,1.73,0,0,0,1.942-1.913c.017-.638.017-1.258,0-1.9a1.737,1.737,0,0,0-1.942-1.913h-2.219V49.946c0-2.068-.867-2.93-2.947-2.93a22.725,22.725,0,0,0-2.427.035c-.277.034-.519.4-.78.6.278.224.52.586.8.621.884.086,1.785.017,2.686.035,1.005.017,1.335.362,1.352,1.362v1.982c0,.086-.034.155-.052.293H784.609c0-.914-.052-1.793.017-2.672.07-.793.677-.983,1.387-.983h13.52c.451,0,1.023.052,1.023-.621C800.574,46.947,800,47,799.5,47H785.892a2.332,2.332,0,0,0-2.582,2.482c-.035,4.533-.018,9.084-.018,13.617,0,.483.052,1.051.677.931.26-.052.589-.6.589-.931.052-2.93.034-5.861.034-8.791v-.982h22.5V65.442h-9.932c-1.456,0-2.046.569-2.063,2.034v1.638c.017,1.482.572,2.034,2.046,2.034h9.932v12.2H784.645V80.077h6.5c1.872,0,2.358-.483,2.358-2.344,0-1.258.017-2.534,0-3.792a1.646,1.646,0,0,0-1.838-1.81c-2.305-.017-4.611,0-6.985,0V70.269h1.838c1.265,0,2.548.034,3.813-.035.295-.017.572-.4.867-.6-.278-.207-.555-.6-.85-.6-1.56-.069-3.12-.035-4.68-.035h-.988V67.2h3.952a9.708,9.708,0,0,0,1.733-.034c.312-.052.573-.4.85-.621-.295-.207-.572-.6-.867-.6-1.906-.052-3.813-.034-5.72-.034-1.3,0-2.6-.035-3.9.034-.294.017-.572.4-.85.6.278.207.555.569.85.6a24.575,24.575,0,0,0,2.531.035v1.793a24.84,24.84,0,0,0-2.548.035c-.295.034-.555.4-.832.621.295.207.555.552.867.586a24.6,24.6,0,0,0,2.531.034v1.862H780.45c-.867,0-1.734-.017-2.6,0a1.658,1.658,0,0,0-1.82,1.758q-.053,2.2,0,4.4A1.691,1.691,0,0,0,777.9,80.06c1.75.017,3.518,0,5.373,0,.017.345.052.655.052.948v7.24c0,1.965.884,2.844,2.842,2.844h9.187c.225,0,.519.069.676-.034a1.084,1.084,0,0,0,.5-.655c.017-.173-.294-.448-.52-.534a1.867,1.867,0,0,0-.763-.052h-9.013c-1.335,0-1.612-.293-1.63-1.621C784.575,87.11,784.575,85.989,784.575,84.8Zm.174-5.981c-2.2,0-4.385-.017-6.587,0-.589,0-.9-.138-.884-.827.052-1.258.034-2.534,0-3.792-.017-.552.174-.776.746-.776,4.472.017,8.961.017,13.433,0,.555,0,.763.224.763.776-.034,1.207-.052,2.413,0,3.62.035.741-.208,1.017-.971,1C789.082,78.8,786.915,78.819,784.749,78.819Zm19.136-8.912h-5.46c-2.062,0-2.011,0-2.079-2.051-.018-.862.242-1.138,1.109-1.12,3.865.052,7.731.017,11.6.017,2.236,0,2.2,0,2.236,2.224.017.793-.295.965-1.022.948C808.148,69.872,806.016,69.907,803.884,69.907Z" transform="translate(-761.31 -36.079)" fill="#fff"/>
  <path id="Path_858" data-name="Path 858" d="M795.525,66.506h6.847a1.716,1.716,0,0,0,1.976-1.948c.018-1.345.018-2.706,0-4.051a1.742,1.742,0,0,0-1.993-1.948H788.835c-1.387,0-1.993.621-1.993,2v3.965c0,1.4.589,1.965,2.01,1.965C791.088,66.506,793.307,66.506,795.525,66.506Zm-7.383-6.274c1.941.776,3.761,1.517,5.789,2.327-2.063.81-3.883,1.534-5.789,2.293Zm14.837.086v4.464c-1.838-.741-3.588-1.448-5.546-2.224C799.391,61.765,801.107,61.076,802.979,60.317Zm-2.808,4.723-.052.1h-8.857c1.369-.689,2.739-1.241,4.125-1.793a.793.793,0,0,1,.486-.034C797.311,63.9,798.733,64.472,800.171,65.04Zm-.139-5.119c0,.052.017.1.017.172-1.352.534-2.721,1.086-4.073,1.62-.156.052-.365.121-.486.052-1.421-.552-2.843-1.138-4.281-1.707a.39.39,0,0,0,.035-.138Z" transform="translate(-761.168 -38.987)" fill="#fdb934"/>
  <path id="Path_859" data-name="Path 859" d="M794.072,88.264a9.485,9.485,0,0,0,1.716-.035c.312-.052.589-.379.884-.586-.278-.224-.537-.621-.832-.638a34.542,34.542,0,0,0-3.779,0c-.26.017-.52.379-.78.586.277.224.52.586.814.638A12.608,12.608,0,0,0,794.072,88.264Z" transform="translate(-756.803 -46.128)" fill="#fdb934"/>
  <path id="Path_860" data-name="Path 860" d="M793.929,84.17a12.57,12.57,0,0,0,1.976-.034c.278-.035.5-.4.763-.621-.26-.207-.519-.569-.8-.586a36.146,36.146,0,0,0-3.865,0c-.26.017-.485.4-.745.621.26.207.5.552.78.586A11.456,11.456,0,0,0,793.929,84.17Z" transform="translate(-756.781 -45.103)" fill="#fdb934"/>
</svg>
