<svg xmlns="http://www.w3.org/2000/svg" width="164" height="164" viewBox="0 0 164 164">
  <g id="Group_10865" data-name="Group 10865" transform="translate(-601 -1815)">
    <circle id="Ellipse_75" data-name="Ellipse 75" cx="82" cy="82" r="82" transform="translate(601 1815)" fill="#fdb934" opacity="0.1"/>
    <circle id="Ellipse_76" data-name="Ellipse 76" cx="55.5" cy="55.5" r="55.5" transform="translate(627 1841)" fill="#fdb934" opacity="0.1"/>
    <path id="Path_14214" data-name="Path 14214" d="M810.17,647.846c2.461-3.564,4.846-7.026,7.231-10.436-.129-.128-.154-.179-.205-.179-2.847-.282-2.847-.282-2.847-3.154V623.949c0-.769.026-1.59,1.026-1.564.923.025.949.82.949,1.538v11.282c.948,0,1.8-.025,2.641,0,1.384.051,1.795.769,1.025,1.872q-4.345,6.347-8.743,12.641c-.769,1.077-1.333,1.1-2.051.051q-4.423-6.346-8.821-12.743c-.743-1.077-.359-1.744.975-1.821.435-.025.846,0,1.282,0h1.461V614.564c0-1.666.154-1.82,1.821-1.82H814.5c1.616,0,1.821.2,1.821,1.872,0,1.153.025,2.307,0,3.461,0,.769.1,1.718-1.026,1.692-1.026-.025-.949-.9-.949-1.641v-3.384h-8.307v20.051c0,2.333-.026,2.384-2.308,2.41-.205,0-.41.026-.872.051C805.3,640.82,807.683,644.256,810.17,647.846Z" transform="translate(-137.837 1268.23)" fill="#77787c"/>
    <path id="Path_14215" data-name="Path 14215" d="M836.6,623.462c1.026,0,1.872-.026,2.718,0,1.308.051,1.718.743,1,1.8-2.923,4.256-5.872,8.487-8.82,12.743-.744,1.051-1.308,1.051-2.051-.026q-4.385-6.308-8.744-12.64c-.231-.334-.461-.975-.308-1.231a1.842,1.842,0,0,1,1.231-.616,23.337,23.337,0,0,1,2.692-.025V607.77c0-1.564.18-1.744,1.795-1.744,2.949,0,5.9.051,8.846-.026,1.257-.025,1.667.488,1.641,1.667-.025,4.744-.025,9.487-.025,14.231C836.6,622.359,836.6,622.821,836.6,623.462ZM826.323,608v1.488c0,4.769-.025,9.564,0,14.333,0,1.128-.435,1.692-1.589,1.615-.462-.026-.949,0-1.667,0,2.564,3.718,4.923,7.128,7.385,10.667,1.282-1.847,2.487-3.564,3.666-5.282,1.205-1.718,2.385-3.462,3.667-5.308-.513-.026-.769-.051-1.026-.077-2.077-.051-2.179-.128-2.179-2.179V608Z" transform="translate(-137.837 1268.229)" fill="#fdb934"/>
  </g>
</svg>
