<svg xmlns="http://www.w3.org/2000/svg" width="164" height="164" viewBox="0 0 164 164">
  <g id="Group_10866" data-name="Group 10866" transform="translate(-233 -1815)">
    <circle id="Ellipse_77" data-name="Ellipse 77" cx="82" cy="82" r="82" transform="translate(233 1815)" fill="#fdb934" opacity="0.1"/>
    <circle id="Ellipse_78" data-name="Ellipse 78" cx="55.5" cy="55.5" r="55.5" transform="translate(259 1841)" fill="#fdb934" opacity="0.1"/>
    <g id="Group_34" data-name="Group 34" transform="translate(296.31 1867.298)">
      <path id="Path_984" data-name="Path 984" d="M381.243,223.01H387.5c1.236,0,1.522.437.951,1.5a8.171,8.171,0,0,1-14.6-.019c-.532-1.027-.247-1.483.9-1.483Zm-5.67,1.521a6.607,6.607,0,0,0,6.641,3,6.456,6.456,0,0,0,4.643-3Z" transform="translate(-363.287 -178.785)" fill="#fdb934"/>
      <path id="Path_985" data-name="Path 985" d="M396.618,193.373c.636-.117,1.856-.37,3.108-.554.728-.1,1.016.316.924,1.044a9.579,9.579,0,0,1-9.167,7.985c-.842-.02-1.055-.4-.911-1.154C391.209,197.454,393.026,195.081,396.618,193.373Zm-4.386,6.933c3.392-.057,6.639-3.567,6.719-5.955C395.87,194.5,392.582,197.4,392.232,200.306Z" transform="translate(-363.287 -178.785)" fill="#fdb934"/>
      <path id="Path_986" data-name="Path 986" d="M374.894,196.287c-.044-.751-.416-1.771-.065-2.2s1.433-.432,2.171-.366a5.384,5.384,0,0,1,4.78,4.547c.113.72-.108,1.11-.9,1.212A5.922,5.922,0,0,1,374.894,196.287Zm5.3,1.753c-.719-2.031-2.213-3.091-3.928-2.825A3.763,3.763,0,0,0,380.2,198.04Z" transform="translate(-363.287 -178.785)" fill="#fdb934"/>
      <path id="Path_987" data-name="Path 987" d="M387.884,218.392a4.4,4.4,0,0,1-4.186-2.547c-.114-.3.171-.741.266-1.1.324.152.838.228.952.475a3.071,3.071,0,0,0,5.5-.019c.114-.247.628-.323.951-.456.1.38.362.836.248,1.1A4.182,4.182,0,0,1,387.884,218.392Z" transform="translate(-363.287 -178.785)" fill="#fdb934"/>
      <path id="Path_988" data-name="Path 988" d="M374.716,218.411a4.314,4.314,0,0,1-3.938-2.509c-.134-.285.114-.741.171-1.14.342.152.913.228,1.027.494a3.1,3.1,0,0,0,5.48.019c.134-.266.666-.342,1.009-.513.076.38.342.836.209,1.14A4.428,4.428,0,0,1,374.716,218.411Z" transform="translate(-363.287 -178.785)" fill="#fdb934"/>
      <path id="Path_989" data-name="Path 989" d="M387.108,201.117c-.268.666-.516,1.281-.79,2-.146-.037-.287-.083-.425-.127a2.526,2.526,0,0,0-.814-.173,1.9,1.9,0,0,0-.705.273c-.1.057-.208.113-.311.159.056.086.11.173.163.26a3.922,3.922,0,0,0,.445.634.659.659,0,0,0,.344.132c.065.013.131.026.193.045a15.555,15.555,0,0,1,10.873,10.631,16.072,16.072,0,1,1-30.763,9.322,16.092,16.092,0,0,1,15.694-20.577h.1c.533,0,1.086,0,1.071-.732,0-.682-.57-.7-1.093-.712h-.017A17.106,17.106,0,0,0,371.2,205.1a17.489,17.489,0,1,0,17.666-.852c-.295-.146-.6-.3-.908-.468l-.258-.135q.447-1.163.886-2.316c.877-2.293,1.742-4.558,2.626-6.807a1.66,1.66,0,0,1,.585-.7A12.076,12.076,0,0,0,397.1,179.9c-.33-1.206-.79-1.4-1.832-.743a11.835,11.835,0,0,0-5.559,13.034,5.413,5.413,0,0,1-.5,3.4c-.1.258-.2.523-.294.8a9.572,9.572,0,0,0-4.824-6.838c-1.164-.646-1.477-.507-1.788.756a9.232,9.232,0,0,0,.465,5.849,9.717,9.717,0,0,0,4.4,4.778Zm8.637-20.529c-4,2.516-6.294,8.68-4.419,11.714C395.01,190.47,397.139,184.878,395.745,180.588Zm-12.068,10.4a7.694,7.694,0,0,0,3.671,8.268C388.253,196.525,386.581,192.734,383.677,190.992Z" transform="translate(-363.287 -178.785)" fill="#77787c" fill-rule="evenodd"/>
    </g>
  </g>
</svg>
