<svg xmlns="http://www.w3.org/2000/svg" width="164" height="164" viewBox="0 0 164 164">
  <g id="Group_10864" data-name="Group 10864" transform="translate(-969 -1815)">
    <circle id="Ellipse_79" data-name="Ellipse 79" cx="82" cy="82" r="82" transform="translate(969 1815)" fill="#fdb934" opacity="0.1"/>
    <circle id="Ellipse_80" data-name="Ellipse 80" cx="55.5" cy="55.5" r="55.5" transform="translate(995 1841)" fill="#fdb934" opacity="0.1"/>
    <path id="Path_14211" data-name="Path 14211" d="M940.7,343.542c-.777-1.419-1.419-2.6-2.062-3.747-1.045-1.873-1.581-2.087-3.67-1.525-1.205.321-2.41.669-3.589.99-.08.027-.16-.054-.348-.134,2.277-5.433,4.553-10.892,6.91-16.512a19.407,19.407,0,0,1,1.875,1.1c1.339,1.044,2.652,2.088,3.937,3.212a3.87,3.87,0,0,1,.938,1.391q3.415,8.109,6.83,16.245c.107.24.134.562.321.722.4.428.831,1.071,1.313,1.124a2,2,0,0,0,1.392-.936c.938-1.5,1.768-3.078,2.6-4.657a.947.947,0,0,1,1.366-.562c1.634.535,3.322,1.017,5.009,1.392a2.138,2.138,0,0,0,1.795-.322,2.071,2.071,0,0,0,.08-1.793c-2.116-5.191-4.312-10.329-6.482-15.521-.187-.428-.321-.883-.509-1.445,1.206-.134,2.25-.241,3.3-.4a5.351,5.351,0,0,0,4.607-4.817c.107-1.07.241-2.114.294-3.184a7.183,7.183,0,0,1,2.036-5.058,24.9,24.9,0,0,0,2.143-2.569,5.643,5.643,0,0,0-.108-7.146,1.386,1.386,0,0,0-.267-.294c-2.973-2.676-4.072-6.075-4.179-10.009-.08-3.211-2.142-5.084-5.33-5.432a34.59,34.59,0,0,1-3.723-.348,11.086,11.086,0,0,1-3.267-1.285,35.4,35.4,0,0,1-3.322-2.676,5.483,5.483,0,0,0-7.124-.053,8.826,8.826,0,0,0-1.447,1.2c-2.169,2.542-5.088,3.077-8.2,3.158a8.639,8.639,0,0,0-2.357.374,5.575,5.575,0,0,0-3.777,5.031,43.078,43.078,0,0,1-.482,4.523,6.748,6.748,0,0,1-1.125,2.489c-.8,1.177-1.795,2.194-2.7,3.318a5.509,5.509,0,0,0-.107,7.146,5.19,5.19,0,0,0,.7.829,12.145,12.145,0,0,1,3.777,8.912c.16,4.121,2.062,5.861,6.187,6.182.535.053,1.071.053,1.767.107-.187.562-.321,1.043-.535,1.525-2.116,5.031-4.259,10.062-6.321,15.147a2.667,2.667,0,0,0-.054,2.168c.348.4,1.447.348,2.143.214a33.024,33.024,0,0,0,4.5-1.258c.857-.294,1.178-.027,1.553.669.777,1.5,1.58,3,2.464,4.416a2.35,2.35,0,0,0,1.473,1.043c.4,0,1.018-.642,1.232-1.15,1.232-2.757,2.357-5.567,3.536-8.35.268-.669.455-1.338-.4-1.686s-1.205.268-1.473.91C942.789,338.511,941.8,340.892,940.7,343.542Zm6.214-17.422A13.865,13.865,0,0,1,944.637,325a29.3,29.3,0,0,1-3-2.462,7.346,7.346,0,0,0-4.554-1.98c-1.018-.081-2.035-.188-3.053-.295-3.187-.267-4.018-1.043-4.419-4.2a9.042,9.042,0,0,1-.081-1.205c-.08-2.836-.669-5.459-2.866-7.493a19.43,19.43,0,0,1-1.794-2.141,3.39,3.39,0,0,1,0-4.522c.8-1.017,1.607-2.034,2.464-3a7.134,7.134,0,0,0,2.009-4.817,35.858,35.858,0,0,1,.455-4.121,3.365,3.365,0,0,1,3.294-3.077c1.072-.107,2.116-.241,3.188-.295a8.521,8.521,0,0,0,5.892-2.462,24.651,24.651,0,0,1,2.571-2.114,3.479,3.479,0,0,1,4.42-.054,26.2,26.2,0,0,1,2.678,2.222,8.415,8.415,0,0,0,5.893,2.488c1.125.054,2.223.188,3.321.3a3.328,3.328,0,0,1,3.053,2.729,10.829,10.829,0,0,1,.241,1.847c.107,3.211.67,6.262,3.268,8.564a10.174,10.174,0,0,1,1.286,1.552c1.446,1.846,1.446,3.238,0,5.031a44.1,44.1,0,0,0-2.839,3.532,11.786,11.786,0,0,0-1.366,3.533,26.347,26.347,0,0,0-.349,3.854c-.241,2.569-1.419,3.8-4.044,3.853-3.857.054-7.312.964-9.964,3.961a4.126,4.126,0,0,1-1.259.99C948.414,325.558,947.717,325.8,946.914,326.12Zm9.133-3.532c2.384,5.7,4.661,11.132,7.045,16.806-1.688-.455-3.134-.857-4.581-1.231a2.178,2.178,0,0,0-2.973,1.257c-.723,1.312-1.446,2.623-2.276,4.122-2.223-5.3-4.312-10.33-6.428-15.388a14.965,14.965,0,0,0,2.249-.669,11.07,11.07,0,0,0,1.982-1.311c1.018-.8,1.983-1.66,3-2.436C954.655,323.337,955.3,323.042,956.047,322.588Z" transform="translate(103.499 1584.758)" fill="#77787c"/>
    <path id="Path_14212" data-name="Path 14212" d="M962.842,301.74c-.242-5.085-3.027-9.768-8.518-12.819-.241-.133-.509-.374-.7-.347a9.494,9.494,0,0,0-1.473.481c.187.428.268,1.017.616,1.285,1.205.91,2.6,1.579,3.7,2.6a13.652,13.652,0,0,1,3.08,15.923,13.852,13.852,0,0,1-26.168-3.346A13.838,13.838,0,0,1,946.8,289.189a7.308,7.308,0,0,0,1.875,0c.455-.107.83-.562,1.259-.883-.375-.375-.75-1.071-1.1-1.044a27.572,27.572,0,0,0-6.322.562c-7.312,2.061-11.758,8.751-11.3,16.592.4,6.744,5.946,12.819,12.936,14.184C953.815,320.473,962.895,312.873,962.842,301.74Z" transform="translate(103.481 1584.758)" fill="#fdb934"/>
    <path id="Path_14213" data-name="Path 14213" d="M943.5,304.149c2.625-2.623,5.062-5.085,7.526-7.547a2.927,2.927,0,0,1,3.053-.83,2.634,2.634,0,0,1,2.143,2.436,4.126,4.126,0,0,1-.91,2.756c-3.081,3.265-6.321,6.423-9.536,9.581a3.084,3.084,0,0,1-4.553-.027q-2.169-2.088-4.259-4.255a3.048,3.048,0,0,1,0-4.523,3.091,3.091,0,0,1,4.42.188C942.106,302.6,942.722,303.292,943.5,304.149Zm.107,5.513a11.864,11.864,0,0,0,1.2-.964c2.732-2.7,5.437-5.406,8.143-8.135a4.917,4.917,0,0,0,1.071-1.178c.187-.374.214-1.1-.027-1.284a2.072,2.072,0,0,0-1.419-.161c-.295.054-.536.455-.777.7-2.357,2.355-4.741,4.71-7.1,7.092a1.391,1.391,0,0,1-2.357,0c-.723-.776-1.5-1.526-2.25-2.275-.535-.535-1.1-.856-1.714-.214-.589.615-.321,1.2.214,1.739,1.34,1.312,2.652,2.65,3.991,3.961A6.252,6.252,0,0,0,943.606,309.662Z" transform="translate(105.319 1584.758)" fill="#fdb934"/>
  </g>
</svg>
